<?xml version="1.0" standalone="no"?><!DOCTYPE svg PUBLIC "-//W3C//DTD SVG 1.1//EN" "http://www.w3.org/Graphics/SVG/1.1/DTD/svg11.dtd"><svg t="1610534806463" class="icon" viewBox="0 0 1024 1024" version="1.1" xmlns="http://www.w3.org/2000/svg" p-id="5193" xmlns:xlink="http://www.w3.org/1999/xlink" width="20" height="20"><defs><style type="text/css"></style></defs><path d="M764.909897 407.954286a36.114286 36.114286 0 0 1-49.316571-13.312 36.114286 36.114286 0 0 1 13.147428-49.371429l144.804572-83.584a36.114286 36.114286 0 0 1 49.316571 13.293714 36.114286 36.114286 0 0 1-13.129143 49.371429l-144.822857 83.602286z" fill="#000" p-id="5194"></path><path d="M149.522469 763.245714c-17.243429 9.965714-39.314286 4.022857-49.316572-13.293714a36.132571 36.132571 0 0 1 13.147429-49.371429l144.804571-83.602285a36.114286 36.114286 0 0 1 49.316572 13.293714 36.132571 36.132571 0 0 1-13.147429 49.371429L149.522469 763.245714z" fill="#DADADA" p-id="5195"></path><path d="M616.045897 765.842286a36.114286 36.114286 0 0 1 13.293714-49.316572 36.114286 36.114286 0 0 1 49.371429 13.147429l83.602286 144.804571c9.965714 17.243429 4.022857 39.314286-13.293715 49.316572a36.114286 36.114286 0 0 1-49.371428-13.147429l-83.602286-144.804571z" fill="#F2F2F2" p-id="5196"></path><path d="M260.754469 150.454857a36.114286 36.114286 0 0 1 13.293714-49.316571 36.132571 36.132571 0 0 1 49.371428 13.129143l83.602286 144.822857c9.965714 17.243429 4.004571 39.314286-13.293714 49.316571a36.114286 36.114286 0 0 1-49.371429-13.147428L260.754469 150.454857z" fill="#CDCDCD" p-id="5197"></path><path d="M728.740754 679.643429a36.114286 36.114286 0 0 1-13.147428-49.371429 36.114286 36.114286 0 0 1 49.316571-13.293714l144.822857 83.602285a36.114286 36.114286 0 0 1 13.129143 49.371429 36.114286 36.114286 0 0 1-49.316571 13.293714l-144.822857-83.602285z" fill="#DEDEDE" p-id="5198"></path><path d="M113.353326 324.352a36.132571 36.132571 0 0 1-13.165715-49.371429 36.114286 36.114286 0 0 1 49.334858-13.293714l144.822857 83.602286a36.132571 36.132571 0 0 1 13.129143 49.371428 36.114286 36.114286 0 0 1-49.316572 13.293715l-144.822857-83.602286z" fill="#D2D2D2" p-id="5199"></path><path d="M344.356754 729.673143a36.114286 36.114286 0 0 1 49.371429-13.165714 36.114286 36.114286 0 0 1 13.293714 49.334857l-83.602286 144.822857a36.114286 36.114286 0 0 1-49.371428 13.129143 36.114286 36.114286 0 0 1-13.293714-49.316572l83.602285-144.822857z" fill="#FFFFFF" p-id="5200"></path><path d="M699.648183 114.285714a36.132571 36.132571 0 0 1 49.371428-13.165714 36.132571 36.132571 0 0 1 13.293715 49.334857l-83.602286 144.822857a36.132571 36.132571 0 0 1-49.371429 13.129143 36.114286 36.114286 0 0 1-13.293714-49.316571l83.602286-144.822857z" fill="#C3C3C3" p-id="5201"></path><path d="M475.355611 784.164571c0-19.931429 16.201143-36.077714 36.187429-36.077714 19.968 0 36.169143 16.146286 36.169143 36.077714v167.204572c0 19.913143-16.201143 36.059429-36.169143 36.059428a36.132571 36.132571 0 0 1-36.187429-36.059428v-167.204572z" fill="#F5F5F5" p-id="5202"></path><path d="M475.355611 73.563429c0-19.931429 16.201143-36.059429 36.187429-36.059429 19.968 0 36.169143 16.146286 36.169143 36.059429v167.204571c0 19.931429-16.201143 36.059429-36.169143 36.059429a36.114286 36.114286 0 0 1-36.187429-36.059429V73.563429z" fill="#C7C7C7" p-id="5203"></path><path d="M239.835611 476.288c19.931429 0 36.077714 16.201143 36.077715 36.169143a36.114286 36.114286 0 0 1-36.077715 36.187428H72.63104A36.114286 36.114286 0 0 1 36.571611 512.457143c0-19.968 16.146286-36.169143 36.059429-36.169143h167.204571z" fill="#D6D6D6" p-id="5204"></path><path d="M950.436754 476.288c19.931429 0 36.059429 16.201143 36.059429 36.169143a36.114286 36.114286 0 0 1-36.059429 36.187428h-167.204571a36.114286 36.114286 0 0 1-36.059429-36.187428c0-19.968 16.146286-36.169143 36.059429-36.169143h167.204571z" fill="#CACACA" p-id="5205"></path></svg>