<?xml version="1.0" standalone="no"?><!DOCTYPE svg PUBLIC "-//W3C//DTD SVG 1.1//EN" "http://www.w3.org/Graphics/SVG/1.1/DTD/svg11.dtd"><svg t="1610534768890" class="icon" viewBox="0 0 1024 1024" version="1.1" xmlns="http://www.w3.org/2000/svg" p-id="3997" xmlns:xlink="http://www.w3.org/1999/xlink" width="10" height="25"><defs><style type="text/css"></style></defs><path d="M591.547868 512.088762l417.010949-417.010949a54.537453 54.537453 0 0 0 0-76.813314l-2.475096-2.304399a54.537453 54.537453 0 0 0-76.813314 0L512.259458 433.568485 95.24851 15.789403a54.537453 54.537453 0 0 0-76.813315 0L16.130796 18.093803a53.598624 53.598624 0 0 0 0 76.813314L433.227093 512.088762 16.216144 929.099711a54.537453 54.537453 0 0 0 0 76.813314l2.3044 2.304399a54.537453 54.537453 0 0 0 76.813314 0l417.010948-417.010948 417.010949 417.010948a54.537453 54.537453 0 0 0 76.813314 0l2.3044-2.304399a54.537453 54.537453 0 0 0 0-76.813314z" fill="#ccc" fill-opacity="0.8" p-id="3998"></path></svg>