<svg t="1610452916327" class="icon" viewBox="0 0 1024 1024" version="1.1" xmlns="http://www.w3.org/2000/svg" p-id="12597" width="20" height="20"><path d="M974.762667 493.653333L527.402667 46.272a21.205333 21.205333 0 0 0-15.402667-6.186667 21.226667 21.226667 0 0 0-15.402667 6.186667L49.237333 493.653333a21.312 21.312 0 1 0 30.165334 30.165334L512 91.221333l432.597333 432.597334a21.312 21.312 0 1 0 30.165334-30.165334z" fill="#333" p-id="12598"></path><path d="M853.333333 477.056a21.333333 21.333333 0 0 0-21.333333 21.333333V938.666667h-192V669.056c0-11.776-4.202667-29.056-16-29.056h-213.333333c-11.797333 0-26.666667 17.28-26.666667 29.056V938.666667H192V498.389333a21.333333 21.333333 0 1 0-42.666667 0v469.333334c0 11.797333 14.869333 13.610667 26.666667 13.610666h234.666667c11.797333 0 16-1.813333 16-13.610666V682.666667h170.666666v285.056c0 11.797333 14.869333 13.610667 26.666667 13.610666h234.666667c11.797333 0 16-1.813333 16-13.610666v-469.333334a21.333333 21.333333 0 0 0-21.333334-21.333333z" fill="#333" p-id="12599"></path></svg>